<svg x="0" y="0" version="1.1" xmlns="http://www.w3.org/2000/svg" xmlns:xlink="http://www.w3.org/1999/xlink" viewBox="0 0 50 50" width="500" height="500"><g transform=""><g fill="none" stroke="none" stroke-width="1" stroke-linecap="butt" stroke-linejoin="miter" stroke-miterlimit="10" stroke-dasharray="" stroke-dashoffset="0" font-family="sans-serif" font-weight="normal" font-size="12" text-anchor="start" mix-blend-mode="normal"><g><g><g><path d="M0,50l0,-50l50,0l0,50z" fill="none"/><path d="M6.0775,46.75c-1.56158,0 -2.8275,-1.26592 -2.8275,-2.8275l0,-37.845c0,-1.56158 1.26592,-2.8275 2.8275,-2.8275l37.845,0c1.56158,0 2.8275,1.26592 2.8275,2.8275l0,37.845c0,1.56158 -1.26592,2.8275 -2.8275,2.8275z" fill="#f1c40f"/><g fill="#000000"><g id="surface1"><path d="M5.01809,2.11c-1.59242,0 -2.90809,1.31566 -2.90809,2.90809l0,39.96383c0,1.59242 1.31566,2.90809 2.90809,2.90809l39.96383,0c1.59242,0 2.90809,-1.31141 2.90809,-2.90809l0,-39.96383c0,-1.59242 -1.31141,-2.90809 -2.90809,-2.90809z M5.01809,4.29l39.96383,0c0.40449,0 0.72809,0.32359 0.72809,0.72809l0,39.96383c0,0.40449 -0.32359,0.72809 -0.72809,0.72809l-39.96383,0c-0.40449,0 -0.72809,-0.32359 -0.72809,-0.72809l0,-39.96383c0,-0.40449 0.32359,-0.72809 0.72809,-0.72809z M22.82,22.82l0,13.7059c0,2.10336 -0.79621,2.6441 -2.18,2.6441c-1.44766,0 -2.4525,-0.90266 -3.11672,-2.07356l-3.42328,2.07356c0.99207,2.0991 3.42328,4.36 6.79547,4.36c3.72984,0 6.28453,-1.98414 6.28453,-6.33988l0,-14.37012z M36.39391,22.82c-3.71281,0 -6.09293,2.37586 -6.09293,5.49684c0,3.38496 1.99692,4.9859 4.99867,6.26324l1.03891,0.44707c1.89473,0.83027 2.83144,1.33695 2.83144,2.76332c0,1.18793 -0.90266,2.04801 -2.62707,2.04801c-2.05227,0 -3.02305,-1.3923 -3.91293,-2.84848l-3.27,2.18c1.22199,2.41418 3.41477,4.36 7.2766,4.36c3.95125,0 6.8934,-2.05227 6.8934,-5.79488c0,-3.47438 -1.99266,-5.01996 -5.5309,-6.53574l-1.03891,-0.44281c-1.78402,-0.77492 -2.55894,-1.27734 -2.55894,-2.52488c0,-1.0091 0.77492,-1.78402 1.99266,-1.78402c1.19644,0 1.96285,0.50668 2.67391,1.78402l3.24019,-2.07781c-1.36676,-2.41418 -3.27,-3.33387 -5.9141,-3.33387z"/></g></g></g></g></g></g></g></svg>